<svg width="111" height="83" viewBox="0 0 111 83" fill="none" xmlns="http://www.w3.org/2000/svg">
<path d="M49.8 0.599991L33 56.8L26.4 31.6C34.2667 31.6 40.6 33.8 45.4 38.2C50.3333 42.6 52.8 48.7333 52.8 56.6C52.8 64.3333 50.2667 70.5333 45.2 75.2C40.2667 79.8667 34 82.2 26.4 82.2C18.8 82.2 12.4667 79.8667 7.4 75.2C2.46667 70.5333 2.83122e-07 64.3333 2.83122e-07 56.6C2.83122e-07 54.4667 0.133334 52.3333 0.4 50.2C0.8 48.0667 1.53333 45.4667 2.6 42.4C3.8 39.3333 5.53333 35.3333 7.8 30.4L21.8 0.599991H49.8ZM107.8 0.599991L91 56.8L84.4 31.6C92.2667 31.6 98.6 33.8 103.4 38.2C108.333 42.6 110.8 48.7333 110.8 56.6C110.8 64.3333 108.267 70.5333 103.2 75.2C98.2667 79.8667 92 82.2 84.4 82.2C76.8 82.2 70.4667 79.8667 65.4 75.2C60.4667 70.5333 58 64.3333 58 56.6C58 54.4667 58.1333 52.3333 58.4 50.2C58.8 48.0667 59.5333 45.4667 60.6 42.4C61.8 39.3333 63.5333 35.3333 65.8 30.4L79.8 0.599991H107.8Z" fill="#009DE0"/>
</svg>
