<svg width="111" height="83" viewBox="0 0 111 83" fill="none" xmlns="http://www.w3.org/2000/svg">
<path d="M3 82.2L19.8 26L26.4 51.2C18.6667 51.2 12.3333 49 7.4 44.6C2.46667 40.0667 2.83122e-07 33.9333 2.83122e-07 26.2C2.83122e-07 18.3333 2.46667 12.1333 7.4 7.6C12.4667 2.93333 18.8 0.599993 26.4 0.599993C34 0.599993 40.2667 2.93333 45.2 7.6C50.2667 12.1333 52.8 18.3333 52.8 26.2C52.8 28.3333 52.6 30.4667 52.2 32.6C51.9333 34.7333 51.2667 37.3333 50.2 40.4C49.1333 43.3333 47.4 47.3333 45 52.4L31 82.2H3ZM61 82.2L77.8 26L84.4 51.2C76.6667 51.2 70.3333 49 65.4 44.6C60.4667 40.0667 58 33.9333 58 26.2C58 18.3333 60.4667 12.1333 65.4 7.6C70.4667 2.93333 76.8 0.599993 84.4 0.599993C92 0.599993 98.2667 2.93333 103.2 7.6C108.267 12.1333 110.8 18.3333 110.8 26.2C110.8 28.3333 110.6 30.4667 110.2 32.6C109.933 34.7333 109.267 37.3333 108.2 40.4C107.133 43.3333 105.4 47.3333 103 52.4L89 82.2H61Z" fill="#009DE0"/>
</svg>
