<svg width="77.000000" height="39.000000" viewBox="0 0 77 39" fill="none" xmlns="http://www.w3.org/2000/svg" xmlns:xlink="http://www.w3.org/1999/xlink">
	<desc>
			Created with Pixso.
	</desc>
	<defs/>
	<path id="Vector" d="M36.63 4.55C36.61 4.38 36.59 4.19 36.57 4.02C36.57 3.98 36.55 3.96 36.55 3.95C36.53 3.8 36.5 3.65 36.46 3.51C36.25 2.63 35.82 1.85 35.2 1.17C34.02 -0.07 32.13 -0.7 29.52 -0.7L22.73 -0.7C21.27 -0.7 20.03 0.38 19.86 1.83L19.73 2.88C19.64 3.59 20.2 4.21 20.91 4.21L27.83 4.21L25.79 2.16C26.46 1.49 27.57 1.49 28.24 2.16L31.21 5.13C31.92 5.84 31.92 7 31.21 7.72L28.26 10.68C27.59 11.35 26.46 11.35 25.79 10.68L27.81 8.65L20.07 8.65C19.47 8.65 18.96 9.1 18.89 9.7L18.42 13.58L17.63 20L23.52 20L24.31 13.6L25.45 13.58L28.96 20L35.88 20L31.77 13.25L31.62 13.02C32.97 12.46 34.09 11.58 34.98 10.34C35.63 9.42 36.12 8.41 36.38 7.3C36.44 7.15 36.46 7.02 36.48 6.87C36.51 6.65 36.55 6.42 36.59 6.18C36.61 5.99 36.64 5.8 36.64 5.61C36.66 5.52 36.66 5.43 36.66 5.33C36.63 5.05 36.63 4.79 36.63 4.55Z" fill="#5590CF" fill-opacity="1.000000" fill-rule="nonzero"/>
	<path id="Vector" d="M59.04 -0.72C59.17 0.38 59.17 1.55 59.02 2.76C58.46 7.15 53.71 10.38 51.65 11.58C51.09 11.92 50.37 11.82 49.9 11.35C48.22 9.67 44.43 5.37 44.99 0.98C45.07 0.4 45.16 -0.16 45.31 -0.7L41.77 -0.7L37.3 20.02L43.19 20.02L45.53 9.16L47.65 20.02L52.59 20.02L57.37 9.16L57.03 20.02L62.96 20.02L63.52 -0.7L59.04 -0.7L59.04 -0.72Z" fill="#5590CF" fill-opacity="1.000000" fill-rule="nonzero"/>
	<path id="Vector" d="M17.74 24.69C17.76 24.97 17.74 25.23 17.72 25.46C17.57 26.62 17.07 27.61 16.2 28.42C15.32 29.23 14.31 29.64 13.15 29.64C11.97 29.64 11.01 29.23 10.28 28.42C9.55 27.61 9.25 26.62 9.4 25.47C9.55 24.31 10.07 23.34 11.01 22.53C11.95 21.72 13 21.31 14.18 21.31C15 21.31 15.7 21.52 16.3 21.93C16.88 22.34 17.31 22.89 17.61 23.6L15.4 24.18C15.06 23.67 14.59 23.41 13.95 23.41C13.39 23.41 12.9 23.62 12.47 24.03C12.04 24.44 11.78 24.93 11.7 25.51C11.63 26.09 11.76 26.58 12.1 26.99C12.43 27.41 12.88 27.61 13.43 27.61C13.82 27.61 14.18 27.52 14.52 27.31C14.85 27.11 15.12 26.82 15.3 26.49L13.09 26.49L13.3 24.78L17.74 24.78L17.74 24.69Z" fill="#5590CF" fill-opacity="1.000000" fill-rule="nonzero"/>
	<path id="Vector" d="M23.46 26.75L25.09 29.43L22.43 29.43L21.08 26.96L20.65 26.96L20.35 29.41L18.08 29.41L19.07 21.44L22.67 21.44C23.67 21.44 24.4 21.69 24.87 22.17C25.32 22.66 25.51 23.3 25.39 24.11C25.32 24.71 25.11 25.23 24.77 25.7C24.42 26.19 23.99 26.54 23.46 26.75ZM22 25.06C22.28 25.06 22.52 24.99 22.73 24.86C22.94 24.71 23.05 24.5 23.09 24.22C23.12 23.94 23.05 23.73 22.9 23.58C22.73 23.43 22.5 23.36 22.22 23.36L21.12 23.36L20.91 25.06L22 25.06Z" fill="#5590CF" fill-opacity="1.000000" fill-rule="nonzero"/>
	<path id="Vector" d="M27.42 22.49C28.37 21.69 29.44 21.27 30.64 21.27C31.84 21.27 32.82 21.69 33.57 22.49C34.32 23.32 34.64 24.29 34.49 25.44C34.34 26.58 33.79 27.57 32.84 28.38C31.88 29.19 30.81 29.6 29.61 29.6C28.41 29.6 27.44 29.19 26.69 28.38C25.94 27.56 25.62 26.58 25.77 25.44C25.92 24.29 26.46 23.32 27.42 22.49ZM28.47 26.92C28.82 27.33 29.29 27.54 29.87 27.54C30.46 27.54 30.96 27.33 31.43 26.92C31.88 26.51 32.16 26.02 32.22 25.44C32.29 24.86 32.14 24.37 31.79 23.96C31.43 23.54 30.96 23.34 30.38 23.34C29.8 23.34 29.29 23.54 28.82 23.96C28.37 24.37 28.09 24.86 28.04 25.44C27.98 26.02 28.11 26.52 28.47 26.92Z" fill="#5590CF" fill-opacity="1.000000" fill-rule="nonzero"/>
	<path id="Vector" d="M40.77 21.46L43.23 21.46L42.66 26.02C42.53 27.09 42.08 27.95 41.33 28.62C40.58 29.3 39.61 29.62 38.44 29.62C37.28 29.62 36.38 29.28 35.78 28.62C35.18 27.95 34.96 27.09 35.09 26.02L35.65 21.46L38.11 21.46L37.54 26.04C37.49 26.51 37.58 26.88 37.81 27.14C38.03 27.41 38.33 27.54 38.69 27.54C39.04 27.54 39.38 27.41 39.68 27.14C39.98 26.88 40.15 26.51 40.21 26.06L40.77 21.46Z" fill="#5590CF" fill-opacity="1.000000" fill-rule="nonzero"/>
	<path id="Vector" d="M47.99 21.46C49 21.46 49.72 21.71 50.18 22.19C50.63 22.68 50.82 23.32 50.71 24.12C50.62 24.93 50.3 25.59 49.73 26.15C49.19 26.69 48.5 26.97 47.69 26.97L45.98 26.97L45.68 29.45L43.41 29.45L44.41 21.48L47.99 21.48L47.99 21.46ZM47.33 25.06C47.62 25.06 47.86 24.99 48.07 24.86C48.27 24.71 48.38 24.5 48.42 24.22C48.46 23.94 48.38 23.73 48.23 23.58C48.08 23.43 47.84 23.36 47.56 23.36L46.45 23.36L46.25 25.06L47.33 25.06Z" fill="#5590CF" fill-opacity="1.000000" fill-rule="nonzero"/>
	<path id="Vector" d="M75.16 4.43C73.44 7.3 71.02 11.11 66.07 16.72C64.57 18.31 62.99 20.07 61.12 21.76C59.35 23.52 57.27 25.21 55.14 26.94C54.01 27.74 52.88 28.55 51.72 29.38C50.5 30.11 49.28 30.86 48.05 31.61C46.75 32.24 45.46 32.96 44.11 33.52C42.74 34.03 41.39 34.66 39.96 35.04L37.85 35.66L35.67 36.07C35.31 36.14 34.96 36.22 34.58 36.28L33.49 36.39C32.78 36.44 32.05 36.56 31.32 36.56C30.44 36.58 29.56 36.58 28.69 36.52C26.71 36.41 24.76 36.11 22.9 35.68C20.24 35.02 17.78 34.01 15.55 32.9C13.32 31.78 11.38 30.44 9.64 29.15C7.6 27.57 5.89 26.02 4.5 24.61C4.48 24.59 4.46 24.56 4.43 24.54C4.39 24.5 4.35 24.46 4.3 24.41C3.43 23.52 2.72 22.72 2.1 22.01C0.68 20.34 -0.09 19.19 -0.26 18.93C-0.19 19.04 0.02 19.29 0.34 19.68C0.36 19.7 0.36 19.7 0.38 19.72C0.39 19.74 0.41 19.75 0.41 19.79C0.83 20.3 1.45 21.03 2.21 21.89C2.95 22.68 3.83 23.58 4.88 24.54C4.9 24.56 4.91 24.57 4.93 24.59C4.97 24.63 5.05 24.71 5.1 24.74C6.47 25.98 8.08 27.33 10 28.64C11.76 29.83 13.75 31.03 15.96 32.02C18.19 32.99 20.59 33.84 23.18 34.33C25.75 34.79 28.47 34.98 31.19 34.74C31.88 34.7 32.56 34.57 33.23 34.48L34.26 34.34C34.6 34.27 34.92 34.18 35.26 34.1L37.26 33.59L39.23 32.9C40.56 32.51 41.78 31.81 43.04 31.27C44.28 30.65 45.44 29.9 46.64 29.24C47.77 28.46 48.89 27.69 49.98 26.94C51.03 26.09 52.06 25.25 53.07 24.42C55 22.66 56.88 20.95 58.49 19.17C60.18 17.47 61.6 15.67 62.96 14.05C63.97 12.89 64.81 11.69 65.6 10.6L75.16 4.43Z" fill="#F4C944" fill-opacity="1.000000" fill-rule="nonzero"/>
	<path id="Vector" d="M75.18 14.64C73.63 16.74 64.44 25.92 62.04 27.86C60.78 28.76 59.5 29.68 58.21 30.61C56.84 31.44 55.45 32.28 54.07 33.13C52.6 33.84 51.16 34.63 49.64 35.28C48.08 35.84 46.58 36.58 44.97 36.99L42.59 37.68L40.15 38.15C39.74 38.23 39.34 38.32 38.93 38.38L37.69 38.49C36.89 38.55 36.06 38.66 35.26 38.7C31.99 38.81 28.79 38.4 25.79 37.7C22.79 36.97 20.03 35.84 17.52 34.59C15 33.31 12.83 31.81 10.88 30.37C8.23 28.36 6.1 26.32 4.43 24.57C4.39 24.54 4.35 24.5 4.3 24.44C3.56 23.67 2.95 22.94 2.4 22.31C1.52 21.27 0.86 20.41 0.41 19.81C0.39 19.79 0.38 19.77 0.38 19.74C0.09 19.36 -0.09 19.08 -0.19 18.93C0.11 19.3 1.01 20.5 2.57 22.17C3.25 22.91 4.05 23.73 4.97 24.61C5.01 24.65 5.08 24.72 5.14 24.76C6.79 26.34 8.85 28.08 11.33 29.79C13.32 31.12 15.53 32.47 18.02 33.59C20.54 34.68 23.24 35.64 26.14 36.2C26.99 36.35 27.85 36.48 28.71 36.56C30.81 36.8 32.99 36.86 35.16 36.67C35.91 36.61 36.68 36.46 37.45 36.37L38.59 36.2C38.97 36.13 39.34 36.03 39.72 35.94L41.99 35.38L44.2 34.61C45.7 34.16 47.07 33.37 48.5 32.75C49.88 32.06 51.2 31.21 52.55 30.46C53.82 29.58 55.08 28.72 56.32 27.86C57.48 26.9 58.64 25.96 59.79 25.02C61.96 23.04 64.08 21.14 65.88 19.1C67.77 17.17 69.39 15.14 70.91 13.34C72.46 11.54 73.66 9.72 74.83 8.18C75.67 7.08 75.91 6.68 76.49 5.76L75.18 14.64Z" fill="#F4C944" fill-opacity="1.000000" fill-rule="nonzero"/>
	<path id="Vector" d="M54.31 2.16C54.31 3.55 53.18 4.68 51.8 4.68C50.41 4.68 49.28 3.55 49.28 2.16C49.28 0.78 50.41 -0.35 51.8 -0.35C53.18 -0.35 54.31 0.78 54.31 2.16Z" fill="#5590CF" fill-opacity="1.000000" fill-rule="evenodd"/>
	<path id="Vector" d="M18.44 4.21L18.45 4.21C18.3 3.01 17.85 1.98 17.07 1.15C16.75 0.81 16.37 0.51 15.92 0.27C15.49 0.03 15 -0.16 14.46 -0.33C14.31 -0.37 14.16 -0.4 13.99 -0.44C13.22 -0.61 12.32 -0.7 11.37 -0.7L4.61 -0.7C3.15 -0.7 1.91 0.38 1.75 1.83L0.6 11.09L-0.5 20L5.36 20L5.38 20L6.17 13.58L10.58 13.58C11.37 13.58 12.12 13.49 12.81 13.28C13.28 13.15 13.71 12.98 14.12 12.76C14.35 12.63 14.55 12.5 14.78 12.37C15.17 12.1 15.55 11.8 15.89 11.45C15.9 11.45 15.9 11.45 15.9 11.43C16.07 11.26 16.24 11.07 16.39 10.88C16.99 10.21 17.44 9.44 17.78 8.65L17.74 8.65C18.08 7.9 18.29 7.06 18.4 6.18C18.51 5.48 18.53 4.83 18.44 4.21ZM6.81 8.65L7.47 8.09C8.42 7.27 8.57 5.86 7.84 4.85L7.37 4.23L10.22 4.23C10.97 4.23 11.55 4.41 11.97 4.79C12.4 5.16 12.57 5.71 12.47 6.44C12.4 7.19 12.1 7.73 11.57 8.11C11.05 8.48 10.41 8.67 9.68 8.67L6.81 8.67L6.81 8.65Z" fill="#5590CF" fill-opacity="1.000000" fill-rule="nonzero"/>
</svg>
