<?xml version="1.0" standalone="no"?>
<!DOCTYPE svg PUBLIC "-//W3C//DTD SVG 20010904//EN"
 "http://www.w3.org/TR/2001/REC-SVG-20010904/DTD/svg10.dtd">
<svg version="1.0" xmlns="http://www.w3.org/2000/svg"
 width="1280.000000pt" height="1280.000000pt" viewBox="0 0 1280.000000 1280.000000"
 preserveAspectRatio="xMidYMid meet">
<metadata>
Created by potrace 1.14, written by Peter Selinger 2001-2017
</metadata>
<g transform="translate(0.000000,1280.000000) scale(0.100000,-0.100000)"
fill="#000000" stroke="none">
<path d="M7083 12729 c-17 -41 -81 -201 -143 -356 l-113 -283 -427 0 -427 0
-154 350 -154 350 -68 0 c-97 0 -330 -27 -477 -55 -146 -29 -267 -62 -401
-112 l-96 -35 -6 -261 c-4 -144 -7 -317 -7 -385 0 -118 -1 -123 -22 -132 -13
-5 -90 -36 -173 -68 -82 -33 -248 -103 -369 -156 -120 -53 -222 -96 -227 -94
-5 2 -124 122 -265 268 -141 146 -262 266 -270 268 -20 5 -214 -98 -364 -194
-227 -144 -490 -341 -526 -393 -20 -28 -5 -70 117 -323 60 -124 121 -262 135
-305 l26 -80 -58 -54 c-33 -31 -121 -112 -196 -182 -76 -70 -199 -184 -274
-253 -127 -118 -137 -126 -167 -120 -18 3 -151 65 -297 137 -146 72 -279 133
-296 136 -27 5 -39 -1 -79 -38 -136 -126 -385 -499 -484 -726 -17 -39 -31 -81
-31 -92 0 -20 68 -96 397 -443 40 -43 73 -86 73 -97 0 -36 -51 -184 -120 -346
-79 -186 -116 -299 -132 -402 l-12 -73 -391 0 -392 0 -47 -121 c-54 -142 -98
-308 -126 -480 -19 -122 -40 -341 -40 -424 l0 -42 79 -23 c43 -12 163 -64 265
-115 102 -51 227 -106 276 -122 l90 -28 0 -330 0 -329 40 39 c48 47 50 35 9
-46 -17 -34 -29 -63 -27 -65 2 -2 43 16 90 39 l85 42 1 280 c0 154 6 341 12
415 78 955 385 1843 909 2625 332 495 758 948 1230 1309 895 683 1973 1072
3097 1115 928 36 1813 -151 2633 -554 569 -280 1045 -626 1501 -1091 378 -386
659 -768 919 -1251 278 -517 489 -1142 571 -1698 7 -44 23 -115 36 -158 l24
-78 10 -867 c5 -477 10 -933 10 -1014 l0 -146 118 -67 c64 -37 118 -69 120
-70 2 -2 -4 -20 -12 -40 -9 -21 -16 -41 -16 -45 0 -14 52 -30 101 -30 92 0
185 -55 231 -137 l30 -53 73 0 c46 0 76 5 82 13 10 12 60 138 87 219 64 191
126 580 126 793 l0 43 -87 27 c-49 15 -171 69 -273 119 -102 51 -223 103 -268
116 l-82 24 0 425 0 426 90 28 c49 16 174 71 276 122 102 51 222 103 265 115
l79 23 0 42 c0 83 -21 302 -40 424 -28 172 -72 338 -126 480 l-47 121 -392 0
-393 0 -7 57 c-12 97 -52 219 -140 425 -46 108 -96 236 -111 283 l-27 86 52
47 c227 206 460 430 460 443 1 25 -138 292 -224 429 -130 208 -305 428 -367
461 -14 8 -57 -6 -186 -59 -214 -89 -337 -134 -436 -162 l-78 -22 -41 39 c-23
21 -82 77 -132 124 -49 47 -163 155 -252 239 -90 84 -161 155 -159 159 2 3 56
165 120 359 l117 352 -20 28 c-23 33 -138 137 -231 209 -237 183 -553 351
-615 327 -13 -5 -88 -70 -166 -144 -310 -292 -341 -320 -359 -320 -36 0 -183
52 -369 130 -182 77 -294 112 -398 126 l-53 7 0 392 0 392 -97 36 c-272 101
-555 159 -842 173 l-128 7 -30 -74z"/>
<path d="M6165 11723 c-766 -25 -1596 -251 -2280 -621 -1292 -699 -2224 -1874
-2604 -3287 -134 -500 -202 -1118 -174 -1599 l8 -140 35 31 c46 40 124 86 180
107 l45 17 1 247 c1 136 7 308 13 382 89 1021 456 1937 1097 2735 843 1051
2076 1710 3439 1841 207 20 661 22 855 5 1136 -102 2157 -548 2975 -1298 747
-685 1276 -1589 1495 -2553 12 -52 23 -101 26 -107 2 -9 27 -13 76 -13 40 0
102 -7 137 -15 35 -9 66 -14 68 -11 7 6 -66 321 -107 461 -105 356 -226 661
-383 965 -815 1572 -2352 2630 -4102 2824 -277 31 -501 39 -800 29z"/>
<path d="M6005 11309 c-871 -74 -1669 -354 -2373 -835 -877 -599 -1559 -1503
-1880 -2494 -157 -484 -229 -921 -239 -1438 l-6 -274 29 4 c29 3 29 3 28 73
-2 143 17 524 32 655 43 376 147 813 269 1130 l29 75 41 -170 41 -170 63 -17
c35 -9 65 -19 68 -21 11 -12 377 -1535 389 -1622 5 -32 2 -44 -15 -59 -12 -11
-21 -25 -21 -33 0 -26 132 -278 163 -310 22 -23 46 -36 86 -44 31 -7 60 -16
65 -20 5 -4 -49 -70 -120 -146 -72 -76 -197 -209 -278 -296 -82 -87 -146 -150
-142 -140 26 65 30 105 16 130 -9 15 -219 175 -473 360 -344 250 -466 333
-487 333 -20 0 -93 -47 -271 -177 -134 -97 -327 -236 -429 -310 -247 -178
-270 -198 -270 -231 0 -15 16 -76 36 -137 63 -196 255 -788 280 -863 13 -40
24 -79 24 -86 0 -8 -21 -26 -48 -41 -26 -15 -55 -35 -64 -43 -24 -20 -23 -67
2 -92 20 -20 33 -20 892 -20 l872 0 116 115 117 115 120 0 119 0 49 88 c26 48
53 90 58 93 5 4 55 7 111 8 l101 2 30 -87 c160 -474 676 -729 1154 -572 208
69 407 232 501 411 18 34 34 63 35 65 1 1 88 -22 192 -52 375 -108 543 -139
758 -140 143 0 171 3 263 27 144 38 274 95 363 160 26 18 28 18 125 -2 288
-60 475 -55 732 19 l102 30 353 -1 352 0 32 -68 c41 -85 113 -181 189 -250
304 -279 744 -325 1096 -115 160 96 312 274 378 447 73 187 82 422 24 610 -5
16 5 17 118 17 l123 0 122 122 123 123 0 -87 0 -87 158 -50 c86 -27 232 -73
325 -102 107 -34 167 -58 167 -67 0 -26 31 -72 58 -86 20 -10 95 -15 307 -19
299 -6 359 -13 473 -61 34 -14 64 -26 67 -26 3 0 17 24 29 53 13 28 47 99 75
156 28 58 50 110 47 116 -2 7 -49 37 -104 69 l-100 57 -6 607 c-3 334 -10 807
-14 1052 l-7 445 -27 57 c-34 72 -96 133 -178 172 l-65 31 -627 3 -626 3 -25
72 c-14 40 -60 171 -102 292 -42 121 -102 292 -132 380 -31 88 -62 172 -69
187 -27 52 -63 66 -336 129 -144 33 -321 74 -393 90 -71 17 -166 39 -210 49
-315 71 -545 124 -632 145 l-103 25 -1102 0 -1103 0 -224 285 c-187 239 -227
284 -245 280 -25 -6 -221 -41 -531 -96 -126 -22 -233 -43 -237 -45 -4 -3 -89
-99 -188 -214 -150 -174 -185 -210 -207 -210 -36 0 -104 -35 -124 -63 -8 -12
-62 -122 -119 -244 l-104 -223 -816 0 c-449 0 -924 -3 -1056 -6 -132 -3 -245
-2 -251 3 -10 7 0 39 41 134 455 1055 1275 1917 2301 2419 369 180 666 286
1051 374 600 137 1260 157 1869 55 1164 -194 2214 -812 2964 -1744 340 -422
640 -978 809 -1495 43 -130 105 -349 117 -410 18 -96 25 -110 50 -110 33 0 33
10 -14 198 -173 691 -499 1337 -958 1902 -140 172 -471 508 -633 641 -771 637
-1636 1005 -2620 1115 -172 19 -720 27 -885 13z m-590 -2120 c-85 -23 -373
-84 -472 -100 l-72 -12 -132 -139 c-72 -76 -134 -137 -136 -134 -6 6 145 208
204 274 l38 42 155 26 c188 31 414 62 455 62 19 0 5 -7 -40 -19z m2949 -633
c79 -19 294 -69 477 -111 184 -42 375 -86 424 -98 l90 -22 -105 -2 c-58 -2
-1106 -16 -2330 -33 -1224 -17 -2274 -31 -2335 -33 -262 -5 923 -24 4290 -68
495 -7 901 -13 903 -14 1 -1 31 -86 67 -188 l65 -187 -263 0 c-144 -1 -333 -1
-420 -2 -86 -1 -160 1 -162 4 -3 3 126 9 287 13 161 4 329 10 373 14 74 6 66
7 -100 14 -1321 55 -3835 55 -5200 0 -188 -7 -189 -8 -90 -14 55 -4 227 -10
383 -14 155 -5 280 -10 277 -13 -2 -3 -54 -5 -115 -4 -60 0 -252 1 -425 1
l-315 1 0 137 0 137 122 258 122 258 1917 0 1918 0 145 -34z m-4464 -474 c55
-14 -356 -26 -875 -26 -453 0 -911 11 -900 22 14 14 365 20 1025 17 393 -2
731 -8 750 -13z m-1203 -225 c4 -5 323 -1646 323 -1665 0 -9 -47 -12 -183 -12
l-183 0 -23 103 c-13 56 -40 174 -61 262 -22 88 -91 383 -155 655 -64 272
-125 532 -136 576 -10 45 -19 83 -19 85 0 4 433 -1 437 -4z m847 -19 c3 -13
23 -216 46 -452 l41 -429 -24 -21 c-13 -12 -73 -66 -133 -122 -60 -55 -166
-153 -235 -216 l-126 -117 -42 232 c-24 128 -63 340 -88 472 -71 384 -123 667
-123 673 0 1 153 2 340 2 l340 0 4 -22z m2845 -295 c82 -351 129 -558 127
-560 -1 -2 -353 -14 -782 -28 -428 -14 -910 -29 -1071 -35 -160 -5 -313 -10
-339 -10 -26 0 -45 -2 -43 -4 2 -2 234 -11 514 -20 281 -9 773 -26 1095 -36
322 -11 603 -20 625 -20 l40 0 59 -251 c32 -137 60 -259 63 -270 5 -19 -12
-19 -1331 -19 l-1337 0 16 28 c8 15 34 54 58 87 l43 60 79 3 c601 19 1388 44
1690 52 672 19 643 21 -960 69 -401 12 -745 24 -762 27 l-33 5 0 509 0 510
1113 0 1114 0 22 -97z m3639 -80 c34 -98 62 -183 62 -189 0 -8 -107 -13 -352
-18 -194 -4 -742 -16 -1218 -26 -476 -11 -1029 -23 -1230 -26 -201 -4 -376
-10 -389 -13 -13 -4 363 -15 835 -25 2178 -46 2404 -52 2412 -61 9 -10 42
-101 42 -117 0 -4 -789 -8 -1754 -8 l-1753 0 -12 43 c-17 65 -141 601 -141
610 0 4 773 7 1718 7 l1717 0 63 -177z m-6030 -613 l2 -265 -123 -167 c-179
-243 -181 -241 -15 14 l108 167 0 359 c0 419 11 590 21 322 3 -91 7 -284 7
-430z m7230 404 c63 -5 92 -11 92 -19 0 -19 -271 -29 -555 -20 -239 7 -406 19
-335 25 233 18 640 25 798 14z m-978 -428 c0 -2 20 -61 45 -132 l45 -127 0
-139 0 -138 -1750 0 c-962 0 -1750 2 -1750 3 0 2 -27 120 -60 262 -33 142 -60
262 -60 267 0 4 794 8 1765 8 971 0 1765 -2 1765 -4z m1114 -522 c25 -10 19
-33 -11 -40 -32 -8 -640 5 -733 15 -74 9 -85 7 145 21 157 9 579 12 599 4z m1
-179 c0 -20 -6 -20 -285 -19 -261 0 -547 12 -509 21 42 10 340 20 554 19 233
-1 240 -2 240 -21z m-1515 -1 c-19 -2 -226 -13 -460 -25 -234 -11 -427 -22
-429 -25 -2 -2 11 -4 30 -4 19 0 198 -9 399 -20 201 -11 397 -20 435 -20 128
-2 37 -17 -180 -30 -327 -20 -324 -23 40 -48 182 -13 403 -28 493 -34 l162
-12 0 -168 0 -168 -696 0 -695 0 -60 128 c-106 225 -172 362 -175 359 -1 -1
14 -83 32 -182 46 -244 58 -315 53 -319 -2 -2 -663 -168 -1469 -370 -806 -202
-1641 -412 -1857 -467 -216 -54 -396 -99 -401 -99 -5 0 -12 10 -15 23 -2 12
-59 181 -125 375 -80 234 -117 354 -109 357 7 2 77 22 157 45 80 23 199 57
265 77 66 19 257 74 425 123 168 48 440 127 605 175 165 48 317 92 338 98 21
5 36 11 34 13 -2 2 -217 -41 -478 -96 -917 -194 -1225 -260 -1311 -279 l-86
-19 -104 219 c-56 121 -104 212 -105 202 -2 -10 15 -108 36 -218 21 -110 37
-201 36 -202 -1 -2 -98 17 -216 42 -118 25 -346 74 -507 108 -161 34 -294 65
-295 68 -1 3 60 94 137 202 l138 197 2997 -2 c1648 -1 2980 -3 2961 -4z
m-6990 -140 l0 -96 -32 6 c-18 4 -50 9 -70 13 -36 5 -38 7 -38 43 0 20 -3 58
-6 84 l-7 46 77 0 76 0 0 -96z m74 -216 c6 -259 2 -515 -15 -1073 l-2 -50 -8
55 c-12 79 -23 1079 -14 1243 5 100 10 137 20 137 9 0 14 -71 19 -312z m537
40 c1 -762 -7 -1150 -24 -1107 -12 30 -22 1102 -12 1262 5 90 10 117 21 117
12 0 14 -46 15 -272z m183 260 c-18 -31 -145 -208 -149 -208 -3 0 -5 50 -5
110 l0 110 81 0 c61 0 78 -3 73 -12z m-254 -106 l0 -89 -192 -23 c-217 -27
-217 -30 2 -55 214 -24 190 -5 190 -155 0 -114 -2 -129 -17 -134 -10 -2 -85
-12 -168 -21 -82 -9 -161 -20 -175 -24 -16 -5 39 -15 168 -31 l192 -23 0 -132
0 -132 -87 -11 c-49 -6 -135 -17 -192 -23 -63 -8 -96 -15 -85 -19 10 -4 84
-15 164 -24 80 -9 157 -19 173 -22 l27 -6 0 -129 c0 -125 -1 -129 -22 -134
-13 -2 -99 -14 -192 -25 -93 -11 -171 -21 -173 -23 -2 -2 84 -14 192 -27 l195
-23 0 -88 0 -89 -215 0 -215 0 0 775 0 775 215 0 215 0 0 -88z m-2195 -122
c-7 -12 -359 -282 -597 -459 -98 -72 -178 -136 -178 -141 0 -6 33 -117 74
-248 83 -264 206 -685 205 -698 -1 -25 -339 936 -339 965 0 7 132 102 480 347
80 56 354 243 358 243 2 1 0 -3 -3 -9z m1 -497 c-3 -7 -14 -13 -24 -13 -35 0
-125 -54 -176 -105 l-51 -52 -184 53 c-101 30 -186 56 -189 58 -4 5 22 24 413
309 l210 153 3 -195 c1 -108 0 -201 -2 -208z m480 176 c280 -203 326 -239 309
-239 -4 0 -91 -25 -195 -55 -104 -30 -192 -55 -197 -55 -4 0 -19 16 -32 35
-27 41 -127 110 -171 120 l-30 7 0 204 c0 112 3 204 6 204 3 0 142 -99 310
-221z m2008 30 l159 -33 -64 -16 c-88 -23 -174 -56 -236 -91 l-53 -30 0 106
c0 97 2 106 18 101 9 -2 89 -19 176 -37z m-876 -409 l-43 -48 -190 -1 c-104 0
-185 3 -180 7 6 4 37 36 70 72 33 36 114 124 181 195 66 72 138 150 160 174
l39 44 3 -198 2 -198 -42 -47z m1137 296 c33 -10 46 -21 73 -66 17 -30 32 -58
32 -62 0 -20 -39 -5 -71 28 -42 43 -114 90 -154 100 -26 6 -27 8 -10 15 21 8
66 3 130 -15z m-129 -79 c93 -91 82 -112 -26 -46 -44 27 -142 58 -185 59 -29
1 84 48 118 49 21 1 43 -14 93 -62z m7444 33 c0 -13 -9 -22 -26 -26 -28 -7
-456 4 -594 15 l-85 7 75 7 c129 12 159 13 398 15 225 2 232 1 232 -18z m355
1 c38 -8 37 -9 -23 -10 -40 -1 -61 3 -57 9 7 12 25 12 80 1z m-7435 -29 c43
-21 53 -52 16 -52 -16 0 -32 10 -45 29 -33 46 -28 51 29 23z m4563 -21 c31
-29 51 -60 44 -68 -3 -2 -40 14 -83 36 -43 23 -96 44 -117 48 -65 10 -19 24
58 17 57 -5 75 -11 98 -33z m202 7 c1 -2 6 -13 9 -25 11 -35 -24 -30 -60 8
l-29 32 39 -6 c21 -3 40 -7 41 -9z m-5339 -48 c72 -37 111 -66 101 -76 -4 -4
-40 0 -80 9 -39 10 -87 17 -104 17 -29 0 -33 3 -33 28 0 31 16 52 40 52 9 0
43 -13 76 -30z m4909 1 c70 -35 113 -67 102 -77 -4 -4 -42 1 -85 11 -51 11
-103 16 -147 13 l-67 -4 28 24 c39 32 87 62 99 62 6 0 37 -13 70 -29z m614 13
c2 -2 -7 -4 -22 -4 -14 0 -29 5 -32 10 -6 10 42 4 54 -6z m-7797 -134 c51 -15
55 -26 7 -22 -21 2 -47 1 -56 -2 -13 -6 -10 -11 20 -32 20 -13 41 -33 47 -44
10 -19 7 -20 -39 -20 -64 0 -97 -15 -112 -51 -24 -59 21 -109 98 -109 30 0 34
-2 23 -15 -18 -21 -76 -29 -120 -16 -24 7 -52 27 -73 51 -19 22 -37 40 -40 40
-4 0 -7 -21 -8 -47 l-1 -48 -13 30 c-36 77 0 198 74 249 64 44 123 55 193 36z
m7085 -18 c76 -28 65 -39 -44 -44 -70 -3 -112 -11 -145 -26 -27 -11 -48 -17
-48 -13 0 8 67 90 85 104 14 11 97 0 152 -21z m-4876 -12 c30 -16 23 -30 -16
-30 -28 0 -35 4 -35 20 0 22 20 26 51 10z m-1501 -54 l-12 -36 -116 1 c-129 1
-132 -3 43 49 50 15 92 26 93 24 2 -1 -1 -19 -8 -38z m-1325 -20 l180 -53 -3
-32 c-7 -66 44 -225 78 -246 5 -3 10 -12 10 -20 0 -15 -219 -325 -230 -325 -3
0 -26 62 -50 138 -24 75 -76 238 -117 362 -40 124 -73 226 -73 228 0 7 42 -4
205 -52z m7165 -42 c-80 -26 -555 -163 -687 -199 -70 -19 -195 -53 -278 -75
-372 -102 -1345 -341 -1378 -339 -15 1 -6 4 229 72 562 164 1338 367 2024 530
116 28 159 33 90 11z m460 -24 c19 -12 18 -13 -79 -44 -47 -15 -106 -42 -133
-61 -26 -19 -48 -33 -48 -31 0 3 12 32 26 65 19 43 34 63 53 70 34 12 162 13
181 1z m-4176 -43 c142 -71 222 -198 227 -362 l2 -50 10 54 c13 69 -2 170 -37
247 -22 48 -23 55 -8 40 33 -29 83 -152 94 -228 28 -208 -97 -417 -299 -495
-56 -22 -84 -26 -163 -26 -111 0 -181 21 -267 80 -74 51 -76 59 -6 24 100 -50
197 -67 283 -52 l45 8 -56 2 c-216 5 -384 165 -397 377 -7 122 27 212 112 302
83 87 176 124 303 119 70 -3 92 -8 157 -40z m4879 17 c150 -57 255 -211 258
-378 1 -49 3 -55 9 -31 21 83 3 209 -41 298 -21 40 -21 41 -2 24 31 -27 83
-149 95 -222 40 -238 -144 -485 -390 -526 -124 -20 -261 16 -367 97 -41 31
-40 45 2 17 71 -49 211 -79 298 -64 l50 9 -56 1 c-231 5 -412 199 -396 424 12
170 111 299 273 357 71 25 191 22 267 -6z m2565 4 c33 -10 37 -15 24 -35 -5
-8 -21 -4 -55 18 -26 16 -47 31 -47 33 0 5 30 -1 78 -16z m179 -72 c37 -19 77
-42 88 -51 19 -15 19 -16 -15 -9 -36 7 -190 93 -190 106 0 10 33 -3 117 -46z
m-9019 -397 l-82 -149 -670 0 c-368 0 -667 -2 -665 -5 5 -5 944 -125 976 -125
13 0 3 -15 -32 -50 l-50 -50 -661 2 -661 3 441 267 c243 147 534 324 647 393
l207 125 283 0 c208 1 292 4 314 14 l30 13 3 -144 3 -144 -83 -150z m-909 377
c-17 -15 -293 -176 -296 -172 -2 2 7 20 21 40 13 20 32 59 41 86 l17 50 110 0
c61 0 109 -2 107 -4z m6405 -45 c4 -5 -32 -35 -79 -66 -51 -34 -96 -73 -112
-96 -14 -21 -28 -39 -30 -39 -7 0 8 100 18 127 10 28 55 51 133 68 33 7 62 14
63 14 1 1 4 -3 7 -8z m-34 -179 c0 -4 -16 -24 -36 -43 -48 -46 -98 -116 -116
-164 -15 -38 -16 -38 -21 -15 -3 14 -9 45 -12 70 -5 42 -3 48 27 77 53 50 158
100 158 75z m-7005 -76 c28 -3 73 -2 100 3 28 5 51 8 52 7 1 -1 -91 -58 -204
-126 -114 -69 -225 -136 -246 -149 -47 -28 -50 -34 82 151 l104 146 31 -13
c17 -7 54 -15 81 -19z m6765 -96 c0 -23 -2 -23 -355 -3 l-130 8 90 6 c50 3
159 6 243 7 147 2 152 1 152 -18z m195 -110 c-14 -28 -31 -79 -38 -113 l-13
-62 -23 62 c-29 79 -24 100 41 166 52 51 52 52 56 25 2 -15 -8 -49 -23 -78z
m-175 -2 l0 -21 -307 7 c-168 4 -311 10 -317 14 -14 9 168 17 427 20 196 2
197 2 197 -20z m-4740 2 c0 -4 -6 -23 -14 -41 -8 -19 -18 -56 -22 -84 l-7 -50
-23 50 c-26 57 -30 98 -11 117 14 14 77 21 77 8z m1885 -136 c356 -119 375
-133 70 -54 -198 51 -366 98 -372 104 -2 2 0 11 3 20 9 24 32 19 299 -70z
m-1820 -178 c13 -30 -8 -12 -40 34 -27 38 -27 43 -15 83 l13 42 17 -70 c9 -38
21 -79 25 -89z m4910 -1 c4 -13 -5 -7 -24 15 -39 44 -45 68 -30 105 12 30 12
30 29 -35 10 -36 21 -74 25 -85z"/>
<path d="M5835 8140 c-225 -4 -477 -8 -560 -10 l-150 -3 85 -10 c115 -13 3395
-16 3585 -2 l140 10 -210 6 c-348 11 -2450 17 -2890 9z"/>
<path d="M7860 6699 c-316 -7 -709 -25 -827 -38 l-68 -7 90 -7 c455 -37 1313
-54 1975 -38 499 11 740 21 930 38 l85 7 -60 7 c-322 37 -1373 56 -2125 38z"/>
<path d="M7779 6500 c-323 -11 -683 -31 -692 -40 -9 -8 302 -27 663 -40 340
-12 1358 -12 1695 0 354 12 667 32 658 40 -10 9 -346 28 -718 40 -328 11
-1265 10 -1606 0z"/>
<path d="M7915 5609 c-71 -16 -177 -40 -235 -54 -58 -13 -172 -40 -255 -59
-469 -109 -1063 -262 -1604 -414 -150 -42 -269 -78 -263 -80 8 -2 319 66 694
152 447 104 1563 397 1808 476 54 18 -18 7 -145 -21z"/>
<path d="M8375 5594 c-556 -111 -1241 -271 -1803 -420 -136 -36 -281 -75 -322
-86 -305 -80 -1034 -298 -1026 -306 7 -7 662 125 880 178 44 11 178 42 296 69
585 135 1430 362 1954 525 284 89 287 93 21 40z"/>
<path d="M956 5451 c-17 -19 -17 -20 14 -36 l31 -16 -3 32 c-4 39 -18 46 -42
20z"/>
<path d="M843 5372 c-34 -26 -62 -50 -63 -53 0 -3 34 -14 75 -24 l75 -19 32
31 31 31 -34 41 c-19 22 -38 40 -44 40 -5 0 -38 -21 -72 -47z"/>
<path d="M1461 5443 c0 -30 3 -53 9 -53 11 0 11 31 0 75 -7 26 -8 22 -9 -22z"/>
<path d="M1626 5383 c20 -97 23 -103 44 -103 28 0 32 15 20 75 -8 38 -19 61
-37 75 -14 11 -29 20 -33 20 -4 0 -1 -30 6 -67z"/>
<path d="M660 4994 c0 -5 26 -90 58 -189 67 -207 75 -215 130 -140 17 24 32
47 32 51 0 4 -11 30 -24 59 -14 28 -30 80 -37 116 l-12 65 -56 16 c-31 10 -65
20 -74 24 -9 3 -17 2 -17 -2z"/>
<path d="M3932 4950 c-199 -41 -322 -244 -264 -437 26 -85 67 -141 136 -187
106 -71 222 -81 336 -30 221 99 273 392 98 561 -78 76 -203 114 -306 93z m308
-232 c26 -57 26 -158 1 -213 -64 -141 -224 -199 -358 -131 -60 30 -71 42 -18
20 39 -16 103 -18 125 -4 11 7 12 10 2 10 -17 0 -90 51 -96 66 -2 6 12 3 32
-8 72 -36 165 -11 212 58 32 48 34 134 5 179 -19 29 -19 29 -1 15 11 -8 32
-35 47 -59 l28 -43 7 26 c6 27 2 76 -11 109 -15 36 7 15 25 -25z m-169 -37
c62 -62 20 -171 -66 -171 -71 0 -104 33 -105 102 0 40 4 50 31 72 44 37 101
36 140 -3z"/>
<path d="M8844 4950 c-195 -40 -318 -232 -270 -420 39 -150 146 -243 304 -265
98 -13 198 24 278 104 132 132 131 348 -3 485 -73 75 -209 117 -309 96z m306
-232 c22 -49 26 -146 8 -199 -40 -117 -170 -191 -294 -168 -31 6 -70 20 -87
31 -18 11 -23 17 -12 13 32 -12 103 -18 121 -11 13 5 9 12 -22 35 -60 43 -74
64 -27 40 114 -58 254 36 239 163 -3 26 -13 60 -22 75 l-18 28 28 -25 c15 -14
36 -41 46 -60 l18 -35 7 37 c7 35 4 64 -11 102 -13 35 8 13 26 -26z m-166 -39
c18 -21 26 -42 26 -69 0 -27 -8 -48 -26 -69 -35 -42 -97 -44 -143 -5 -26 22
-31 33 -31 71 0 63 40 103 103 103 38 0 49 -5 71 -31z"/>
<path d="M2126 4709 c-49 -5 -91 -11 -93 -13 -21 -20 619 -31 722 -12 l50 9
-40 9 c-59 12 -536 18 -639 7z"/>
<path d="M2090 4555 c-14 -2 -69 -7 -123 -11 -56 -3 -95 -10 -90 -15 18 -18
360 -30 551 -19 299 17 256 34 -108 43 -113 3 -216 4 -230 2z"/>
<path d="M1648 4463 c6 -2 18 -2 25 0 6 3 1 5 -13 5 -14 0 -19 -2 -12 -5z"/>
<path d="M1285 4250 l-30 -20 59 0 c49 0 57 2 52 16 -3 9 -6 18 -6 20 0 12
-49 1 -75 -16z"/>
<path d="M1598 4233 c7 -3 16 -2 19 1 4 3 -2 6 -13 5 -11 0 -14 -3 -6 -6z"/>
<path d="M6204 10657 c10 -7 37 -24 61 -38 23 -15 45 -37 48 -49 5 -20 3 -22
-26 -16 -82 17 -209 28 -277 23 -41 -2 -133 2 -204 9 -71 8 -131 13 -133 11
-2 -3 49 -19 114 -37 110 -30 143 -43 132 -54 -2 -3 -31 2 -64 10 -83 19 -249
17 -379 -5 -72 -13 -140 -18 -205 -16 -53 2 -85 1 -71 -2 17 -4 -11 -13 -90
-27 -90 -16 -153 -20 -290 -19 -152 1 -170 0 -135 -11 l40 -12 -64 -13 c-36
-7 -108 -28 -160 -46 -85 -29 -115 -34 -270 -44 -96 -6 -176 -13 -179 -15 -2
-2 36 -7 85 -11 134 -10 134 -10 55 -65 -38 -26 -103 -85 -145 -130 l-76 -82
-108 -29 -108 -29 120 6 c100 4 133 2 199 -16 44 -11 102 -20 130 -21 l51 0
-36 -14 c-20 -7 -71 -21 -113 -30 -43 -10 -75 -19 -73 -22 3 -2 62 1 131 7
123 10 130 10 232 -16 82 -20 124 -25 185 -22 77 3 78 3 57 -14 -13 -10 -27
-18 -32 -18 -5 0 -7 -3 -4 -6 4 -3 16 0 29 6 12 7 70 18 130 26 67 8 133 23
175 40 l68 27 111 -13 c61 -7 127 -11 145 -8 31 5 33 4 15 -8 -72 -48 -30 -39
118 25 35 15 70 21 126 21 42 0 100 6 129 14 29 7 52 10 52 6 0 -10 -24 -37
-45 -49 -18 -11 -18 -12 5 -6 36 10 56 10 139 -4 56 -10 92 -10 150 -2 62 9
86 8 131 -4 34 -9 96 -15 160 -14 58 0 121 -5 140 -11 19 -6 103 -16 185 -21
171 -12 305 -25 290 -28 -5 -1 -21 -10 -35 -21 l-25 -20 55 19 c58 20 211 53
245 53 61 0 175 -16 210 -29 62 -23 224 -29 293 -10 31 8 94 20 139 26 50 6
101 20 131 35 53 27 108 83 117 119 5 20 11 22 59 19 61 -4 111 16 121 48 3
11 15 20 25 20 85 0 665 -95 843 -138 42 -11 79 -17 81 -13 7 12 28 142 24
146 -4 4 -837 95 -866 95 -4 0 -12 15 -17 33 -14 45 -56 59 -165 51 -96 -6
-140 5 -140 35 0 11 -12 33 -26 50 -55 66 -173 113 -344 135 -60 9 -140 28
-188 45 -93 35 -104 37 -76 16 17 -13 16 -14 -15 -5 -18 5 -70 15 -115 21 -44
7 -121 27 -170 45 -50 18 -92 32 -93 30 -2 -2 25 -20 60 -40 59 -32 66 -40 76
-80 15 -62 15 -63 -16 -34 -57 53 -148 86 -299 108 -44 6 -122 22 -175 35 -53
13 -129 27 -170 31 -41 4 -102 18 -137 30 -68 26 -87 30 -58 11z m335 -106
l64 -16 22 -68 c12 -37 20 -67 19 -67 -1 0 -50 34 -109 75 -59 41 -113 75
-119 75 -21 -1 98 -100 182 -152 45 -28 82 -55 82 -60 0 -10 -65 25 -140 76
-51 34 -170 145 -170 158 0 11 84 0 169 -21z m-254 -45 c45 -14 52 -20 69 -62
10 -25 34 -66 52 -90 36 -47 43 -74 19 -74 -27 0 -176 59 -241 95 -57 32 -182
120 -209 147 -16 16 252 3 310 -16z m563 -17 c93 -24 137 -45 179 -86 27 -28
33 -41 33 -76 0 -24 -6 -51 -13 -61 -13 -18 -15 -18 -60 2 -25 11 -77 40 -115
65 -71 46 -202 162 -202 179 0 12 80 2 178 -23z m345 -10 c88 -13 170 -36 218
-60 51 -25 99 -83 99 -119 0 -33 -19 -80 -32 -80 -13 0 -106 49 -163 85 -84
53 -226 185 -200 185 3 0 39 -5 78 -11z m-1298 -29 c50 -25 95 -77 95 -111 0
-11 -12 -22 -35 -29 -29 -10 -43 -8 -89 9 -93 35 -378 122 -383 117 -15 -14
190 -98 322 -131 68 -17 85 -25 70 -31 -25 -10 -166 27 -268 71 -80 34 -189
96 -183 103 15 14 180 31 291 29 116 -2 136 -5 180 -27z m-580 -20 c22 -5 46
-17 53 -27 7 -10 28 -39 47 -65 19 -26 35 -56 35 -67 0 -18 -5 -19 -57 -14
-32 3 -101 16 -153 29 -106 27 -279 103 -258 115 7 4 47 12 88 19 41 6 82 13
90 15 34 6 117 4 155 -5z m2387 -50 c168 -41 241 -115 203 -206 -12 -30 -18
-34 -37 -28 -79 24 -218 115 -305 199 l-68 66 65 -6 c36 -3 100 -15 142 -25z
m-2799 -9 c35 -13 97 -98 97 -131 0 -25 -4 -28 -43 -33 -47 -7 -207 6 -283 23
-64 14 -204 62 -204 70 0 8 126 49 200 66 67 15 200 17 233 5z m2227 -71 c14
-34 14 -35 -19 -45 -20 -6 -23 -4 -18 10 4 9 7 30 7 46 0 36 13 31 30 -11z
m-1067 -34 c18 -7 41 -23 51 -35 19 -21 19 -22 0 -36 -69 -55 -323 -155 -392
-155 -24 0 -23 0 8 40 56 71 144 150 194 175 56 28 92 31 139 11z m572 0 c19
-14 19 -15 0 -51 -51 -94 -243 -295 -254 -264 -6 18 30 139 61 206 37 79 85
123 136 123 21 0 47 -6 57 -14z m-2231 -20 c33 -14 66 -50 66 -71 0 -14 -145
-86 -226 -114 -74 -25 -192 -47 -201 -37 -10 9 122 141 182 180 84 55 124 65
179 42z m1957 -3 c16 -10 29 -22 29 -28 0 -16 -112 -128 -173 -173 -77 -58
-147 -96 -147 -81 0 23 78 173 112 217 63 80 119 100 179 65z m-709 -23 l33
-30 -30 -25 c-63 -52 -222 -122 -319 -140 -37 -7 -38 -7 -26 15 21 38 153 166
195 188 59 31 108 29 147 -8z m1575 -16 l24 -15 -23 -40 c-40 -72 -146 -196
-212 -248 -35 -28 -66 -51 -69 -51 -8 0 20 108 43 169 73 187 146 245 237 185z
m-2001 -17 l37 -33 -49 -36 c-77 -56 -171 -104 -269 -137 -49 -16 -91 -28 -94
-25 -8 8 70 113 128 170 99 100 183 120 247 61z m2801 1 c7 -6 13 -21 13 -34
0 -18 -5 -24 -22 -24 -17 0 -19 3 -9 9 10 6 4 12 -23 21 -40 13 -39 12 -30 35
7 18 46 14 71 -7z m178 8 c27 -12 35 -21 35 -40 0 -22 -5 -26 -27 -25 -22 0
-24 2 -10 8 14 5 3 12 -46 29 -35 13 -68 22 -73 21 -21 -4 -28 2 -14 11 22 14
96 12 135 -4z m-3471 -30 c43 -18 85 -74 65 -87 -121 -81 -449 -183 -449 -140
0 16 166 168 214 196 43 25 88 41 124 44 7 1 28 -5 46 -13z m2858 -16 l33 -30
-35 -29 c-56 -48 -174 -111 -262 -142 -45 -15 -84 -26 -87 -24 -16 16 152 205
208 235 55 29 104 26 143 -10z m-692 5 c17 -9 30 -20 30 -26 0 -21 -146 -161
-218 -210 -110 -74 -114 -68 -47 68 77 154 155 209 235 168z m1234 -51 c20
-20 20 -30 0 -38 -10 -4 -13 -2 -8 6 5 7 2 9 -8 5 -9 -3 -45 -11 -79 -18 -53
-11 -60 -14 -39 -20 22 -6 21 -7 -10 -8 l-35 -1 25 24 c30 29 98 66 122 66 9
0 24 -7 32 -16z m-205 -28 c9 -11 2 -22 -36 -55 -60 -54 -173 -124 -240 -150
-29 -11 -53 -19 -53 -16 0 10 94 155 110 170 11 10 40 18 73 19 34 2 67 11 88
24 42 25 44 25 58 8z m-239 -20 c0 -3 -4 -8 -10 -11 -5 -3 -10 -1 -10 4 0 6 5
11 10 11 6 0 10 -2 10 -4z m405 -6 c-11 -5 -29 -8 -40 -8 -16 0 -15 2 5 8 34
11 60 11 35 0z m-2305 -89 c0 -6 12 -6 31 1 16 6 33 8 36 4 7 -6 -37 -25 -81
-33 -26 -6 -28 -5 -17 16 12 21 31 29 31 12z m820 -1 c0 -10 -23 -21 -70 -34
-14 -4 -5 5 20 18 53 30 50 29 50 16z m790 -114 c-49 -14 -56 -13 -45 3 3 6
25 11 48 10 l42 -1 -45 -12z"/>
<path d="M6035 10500 c10 -16 115 -85 182 -118 113 -57 240 -98 168 -54 -38
24 -344 182 -351 182 -3 0 -2 -5 1 -10z"/>
<path d="M6712 10489 c12 -38 308 -241 308 -212 0 5 -42 38 -92 74 -158 112
-221 152 -216 138z"/>
<path d="M7181 10434 c43 -47 136 -113 216 -155 77 -40 78 -40 43 -9 -39 35
-264 190 -276 190 -4 0 3 -12 17 -26z"/>
<path d="M5035 10382 c15 -16 141 -61 230 -83 74 -17 155 -26 144 -14 -6 6
-299 90 -349 100 -24 5 -32 4 -25 -3z"/>
<path d="M7550 10381 c0 -16 154 -134 229 -174 125 -68 99 -34 -55 69 -181
122 -174 117 -174 105z"/>
<path d="M4555 10284 c75 -29 234 -54 328 -53 114 1 91 8 -149 44 -198 29
-239 31 -179 9z"/>
<path d="M5945 10154 c-71 -30 -147 -62 -168 -71 -55 -23 -39 -27 34 -8 98 25
322 136 272 135 -4 0 -66 -25 -138 -56z"/>
<path d="M6555 10168 c-33 -39 -81 -96 -107 -127 -26 -30 -45 -57 -42 -60 8
-8 124 111 168 174 53 74 59 85 49 85 -4 0 -35 -33 -68 -72z"/>
<path d="M4295 10131 c-227 -84 -280 -118 -104 -67 89 26 201 74 234 100 31
24 10 19 -130 -33z"/>
<path d="M6228 10102 c-70 -58 -126 -108 -123 -110 2 -2 24 7 49 22 48 28 214
181 206 189 -3 3 -62 -42 -132 -101z"/>
<path d="M5560 10150 c-130 -55 -223 -100 -218 -105 13 -14 226 75 298 124 29
20 -12 11 -80 -19z"/>
<path d="M7159 10117 c-155 -175 -190 -219 -185 -225 10 -9 165 154 210 221
22 31 37 59 34 62 -2 3 -29 -23 -59 -58z"/>
<path d="M5051 10073 c-94 -47 -169 -88 -168 -90 7 -6 114 30 170 58 96 49
198 119 173 119 -3 0 -82 -39 -175 -87z"/>
<path d="M4583 10030 c-170 -62 -210 -79 -182 -80 56 -1 279 77 344 120 49 32
10 23 -162 -40z"/>
<path d="M7431 10040 c-85 -44 -157 -83 -160 -86 -16 -18 65 12 154 56 82 40
185 109 165 109 -3 0 -74 -35 -159 -79z"/>
<path d="M6784 10027 c-60 -52 -116 -102 -124 -112 -46 -56 119 66 194 144 82
84 46 67 -70 -32z"/>
<path d="M7762 9973 c-73 -47 -130 -88 -128 -90 9 -10 121 52 196 108 44 32
80 61 80 64 0 13 -26 -1 -148 -82z"/>
<path d="M1525 6179 c-91 -17 -205 -60 -266 -101 -33 -22 -58 -42 -56 -44 2
-2 33 7 69 20 36 14 103 35 149 46 88 23 344 60 410 60 21 0 39 4 39 9 0 21
-245 28 -345 10z"/>
<path d="M838 5973 c-41 -59 -111 -159 -157 -222 -45 -63 -87 -123 -92 -134
-13 -24 -13 -23 99 56 81 58 116 90 72 67 -48 -26 -26 1 70 85 l100 88 -6 81
c-4 45 -8 82 -9 84 -2 2 -36 -45 -77 -105z"/>
<path d="M1523 6070 c-23 -5 -61 -17 -84 -27 l-42 -18 159 -1 c136 0 248 -9
379 -30 26 -4 25 -2 -15 20 -25 13 -73 32 -105 40 -73 20 -234 29 -292 16z"/>
<path d="M669 5943 c-94 -78 -166 -177 -204 -278 -27 -71 -34 -126 -12 -91 66
104 135 207 193 286 39 52 74 101 78 108 13 23 -9 12 -55 -25z"/>
<path d="M1550 5931 c0 -11 23 -31 37 -31 19 0 4 27 -18 33 -10 3 -19 2 -19
-2z"/>
<path d="M470 5813 c-79 -89 -149 -226 -180 -352 -21 -82 -28 -251 -10 -251 6
0 10 12 10 28 0 82 75 304 173 515 25 53 44 97 42 97 -1 0 -17 -17 -35 -37z"/>
<path d="M270 5789 c-41 -21 -119 -53 -172 -70 l-98 -32 0 -42 c0 -159 41
-470 86 -649 28 -113 26 -108 85 -263 l42 -113 38 0 c22 0 39 4 39 9 0 4 -25
140 -56 302 -51 271 -55 303 -51 404 3 90 10 127 36 205 31 91 111 253 131
265 12 7 13 25 3 24 -5 0 -42 -18 -83 -40z"/>
<path d="M321 4806 c-6 -41 -14 -99 -17 -130 l-7 -56 62 0 c55 0 62 2 57 18
-52 166 -77 242 -80 242 -2 0 -9 -33 -15 -74z"/>
<path d="M11985 4750 c-2 -4 3 -14 13 -23 32 -28 165 -117 170 -113 10 11 -45
89 -76 108 -38 23 -100 40 -107 28z"/>
<path d="M12160 4706 c28 -27 173 -126 177 -122 8 7 -7 43 -28 70 -27 35 -90
66 -131 66 -28 0 -30 -2 -18 -14z"/>
<path d="M10795 4543 c-98 -232 -255 -522 -398 -735 l-78 -118 -487 -1 c-268
-1 -490 -1 -494 0 -3 0 -38 -10 -76 -23 -136 -46 -220 -61 -357 -60 -139 0
-209 11 -320 51 l-70 25 -1315 -7 c-723 -4 -1668 -11 -2100 -14 -778 -7 -786
-7 -880 -30 -133 -33 -339 -33 -455 -1 -78 22 -97 23 -694 29 l-613 7 -25 29
c-13 17 -47 67 -76 112 -48 76 -55 83 -84 83 -18 0 -33 -2 -33 -5 0 -3 32 -53
70 -110 l70 -105 -80 0 -81 0 -71 110 -72 110 -153 0 c-84 0 -153 -3 -153 -6
0 -3 25 -48 55 -99 30 -52 55 -98 55 -102 0 -4 -51 -7 -112 -5 l-113 3 -58
105 -58 104 -144 0 c-80 0 -145 -3 -145 -6 0 -3 7 -31 16 -61 10 -35 13 -58 6
-62 -5 -3 -74 -67 -153 -141 -79 -74 -188 -178 -244 -230 -85 -80 -100 -98
-98 -123 4 -74 194 -407 341 -597 70 -90 196 -226 223 -241 11 -6 67 8 175 42
88 27 193 61 234 74 41 13 128 40 193 61 l119 37 81 -80 c45 -43 177 -170 294
-281 l211 -203 -24 -82 c-54 -179 -119 -369 -171 -501 l-55 -138 48 -50 c107
-109 407 -325 594 -426 76 -42 199 -92 224 -92 12 0 183 155 438 397 43 40 82
73 87 73 5 0 108 -36 228 -79 120 -43 299 -108 398 -144 l180 -65 6 -133 c4
-74 10 -245 14 -381 l7 -246 120 -46 c232 -89 507 -143 830 -162 l117 -7 11
44 c24 92 35 119 129 309 54 108 108 233 121 278 l24 82 426 0 426 0 24 -82
c13 -45 67 -170 121 -278 94 -190 105 -217 129 -309 l11 -44 117 7 c323 19
598 73 831 162 l121 47 0 392 0 393 57 7 c113 14 215 49 468 160 135 59 300
118 318 113 7 -2 86 -82 176 -178 91 -96 198 -210 239 -253 l75 -78 36 12 c60
19 240 111 349 180 150 93 303 209 401 304 l85 83 -63 198 c-34 110 -85 270
-113 356 l-51 158 169 177 c93 98 221 230 284 295 l115 117 358 -120 357 -120
41 32 c57 45 207 231 300 372 142 214 240 418 223 462 -5 13 -68 86 -140 162
-271 287 -324 346 -324 364 0 34 52 184 118 339 71 168 123 320 115 333 -17
27 -246 89 -262 71 -4 -5 -16 -31 -26 -59 -57 -161 -182 -428 -308 -662 l-72
-133 -112 0 c-62 0 -113 2 -113 5 0 2 34 64 76 137 115 198 264 508 335 696
l9 22 -148 0 -147 0 -29 -73 c-50 -125 -233 -476 -329 -632 l-92 -150 -83 -3
-84 -3 30 43 c130 191 338 569 428 782 41 95 42 100 26 122 -9 13 -19 24 -22
24 -3 0 -28 -53 -55 -117z m-5690 -1188 c121 -4 221 -8 223 -10 2 -1 -2 -49
-9 -105 l-13 -103 -185 4 -185 4 -13 -70 c-6 -38 -12 -76 -12 -83 -1 -10 30
-12 146 -10 l147 3 -2 -55 c-2 -30 -5 -78 -8 -107 l-6 -52 -42 -6 c-22 -3 -93
-9 -156 -13 l-115 -7 -13 -88 c-8 -49 -12 -90 -10 -92 2 -2 88 1 191 7 103 6
190 9 193 5 3 -3 3 -55 -1 -115 l-7 -110 -52 -6 c-96 -11 -576 -29 -583 -22
-7 7 133 1022 143 1038 3 5 38 6 77 4 40 -3 171 -8 292 -11z m2408 -28 c74
-34 149 -112 179 -186 20 -49 23 -74 23 -206 0 -168 -9 -213 -62 -317 -60
-115 -157 -201 -287 -252 -94 -38 -170 -47 -311 -38 l-120 7 2 80 c2 74 81
907 87 912 13 13 205 31 306 29 111 -2 131 -5 183 -29z m887 12 c8 -11 172
-970 168 -974 -6 -6 -243 -54 -246 -50 -2 2 -8 39 -13 81 -6 43 -12 80 -13 82
-2 1 -69 0 -149 -4 l-145 -7 -33 -76 c-18 -42 -34 -78 -35 -80 -3 -4 -206 28
-212 34 -2 2 41 106 96 232 94 214 282 646 323 741 l18 42 118 -6 c65 -4 120
-11 123 -15z m539 -174 c40 -107 76 -195 80 -195 3 0 55 76 114 170 151 236
127 218 220 161 42 -26 82 -52 88 -58 8 -8 -3 -33 -43 -95 -30 -46 -107 -162
-171 -259 l-116 -177 -25 -177 c-14 -97 -26 -181 -26 -186 0 -5 -54 -9 -120
-9 -89 0 -120 3 -120 13 0 6 12 91 26 187 l26 175 -90 205 c-50 113 -102 231
-116 262 l-26 57 43 25 c76 44 172 96 177 96 3 0 38 -88 79 -195z m-4887 166
c3 -3 -3 -53 -14 -110 l-21 -104 -178 5 -178 5 -10 -61 c-6 -34 -13 -84 -17
-112 l-6 -51 38 -6 c22 -4 83 -7 136 -7 56 0 100 -4 103 -10 4 -6 -2 -58 -11
-116 l-18 -106 -141 7 -141 7 -17 -114 c-9 -62 -19 -137 -23 -165 l-7 -53
-118 0 c-90 0 -119 3 -119 13 0 7 31 231 70 497 38 267 70 489 70 493 0 9 592
-2 602 -12z m408 7 c0 -7 -20 -224 -45 -483 -25 -258 -45 -480 -45 -492 0 -23
-2 -23 -125 -23 l-126 0 6 58 c7 74 29 328 56 662 11 146 23 271 25 278 2 9
37 12 129 12 93 0 125 -3 125 -12z m1285 -20 c-11 -65 -95 -709 -95 -729 0
-19 5 -19 195 -13 l195 7 -1 -24 c0 -13 -8 -67 -17 -119 l-17 -95 -316 -3
-316 -2 38 292 c21 161 50 389 65 506 l28 212 123 0 124 0 -6 -32z m765 22 c0
-6 -22 -178 -50 -383 -27 -205 -50 -376 -50 -380 0 -4 90 -5 201 -1 l200 7 -5
-24 c-3 -13 -12 -63 -20 -112 -8 -48 -18 -92 -21 -97 -10 -16 -625 -13 -625 3
0 6 20 170 45 362 25 193 52 409 61 480 8 72 17 136 19 143 5 16 245 18 245 2z
m-2869 -1398 c200 -127 533 -292 794 -395 452 -179 903 -288 1410 -343 196
-21 684 -29 887 -15 831 61 1603 297 2294 701 l138 80 174 -2 175 -3 -139 -91
c-884 -582 -1929 -894 -2994 -894 -987 0 -1971 271 -2800 770 -160 96 -330
207 -330 215 0 3 78 5 173 5 172 0 173 0 218 -28z m931 -13 c443 -177 895
-284 1403 -330 170 -16 634 -16 805 0 500 46 997 163 1405 330 l99 41 156 -1
155 -1 -112 -54 c-427 -206 -967 -361 -1493 -428 -427 -55 -969 -45 -1403 25
-284 45 -601 126 -870 221 -142 49 -432 170 -517 214 l-45 23 157 1 158 0 102
-41z m3518 25 c-71 -31 -240 -87 -407 -134 -851 -242 -1797 -238 -2649 11
-138 40 -394 128 -394 135 0 2 784 4 1743 4 1570 -1 1739 -2 1707 -16z"/>
<path d="M7280 3141 l-45 -6 -16 -180 c-9 -99 -20 -228 -24 -287 l-8 -108 40
0 c55 0 139 44 174 92 50 70 71 142 77 260 4 94 2 112 -17 150 -32 66 -87 90
-181 79z"/>
<path d="M8238 2995 c-9 -22 -40 -92 -68 -155 -28 -63 -54 -121 -57 -127 -6
-15 35 -17 111 -7 l46 7 -1 91 c-1 50 -4 123 -8 161 l-6 70 -17 -40z"/>
<path d="M11950 4633 c0 -11 -1 -10 163 -87 64 -30 117 -50 117 -45 0 22 -93
98 -138 113 -62 21 -142 31 -142 19z"/>
<path d="M12307 4486 c59 -63 110 -113 112 -110 9 9 -34 99 -63 132 -37 42
-112 92 -139 92 -13 0 14 -34 90 -114z"/>
<path d="M11986 4467 c78 -82 110 -109 112 -96 11 63 -132 208 -207 209 -7 0
36 -51 95 -113z"/>
<path d="M12040 4532 c30 -26 99 -89 152 -141 54 -52 98 -88 98 -80 0 25 -60
119 -103 160 -42 42 -118 85 -172 100 -27 7 -24 3 25 -39z"/>
<path d="M12251 4434 c54 -65 78 -89 112 -116 21 -17 40 -28 43 -25 3 3 -3 25
-14 50 -23 51 -74 94 -123 103 -33 7 -33 6 -18 -12z"/>
<path d="M11950 4435 c0 -3 33 -55 74 -115 40 -60 86 -134 102 -165 34 -64 48
-71 38 -17 -19 103 -80 206 -155 263 -44 33 -59 42 -59 34z"/>
<path d="M12150 4370 c0 -14 45 -131 65 -171 l18 -34 9 25 c13 36 -9 116 -44
156 -30 34 -48 43 -48 24z"/>
<path d="M12450 4375 c0 -11 42 -87 78 -143 l37 -57 3 37 c4 45 -25 106 -68
142 -30 24 -50 33 -50 21z"/>
<path d="M12329 4293 c20 -67 74 -183 83 -177 21 13 3 112 -28 157 -37 51 -67
63 -55 20z"/>
<path d="M12440 4305 c0 -11 9 -81 20 -155 11 -74 20 -139 21 -145 0 -5 7 4
14 20 31 67 12 215 -35 275 -18 23 -20 23 -20 5z"/>
<path d="M12280 4263 c0 -5 18 -64 40 -133 22 -69 40 -131 40 -137 0 -29 19
-10 25 25 10 64 -17 155 -68 225 -20 26 -37 35 -37 20z"/>
</g>
</svg>
