<svg width="111" height="83" viewBox="0 0 111 83" fill="none" xmlns="http://www.w3.org/2000/svg"><path d="M3 82.2L19.8 26l6.6 25.2c-7.733 0-14.067-2.2-19-6.6C2.467 40.067 0 33.933 0 26.2c0-7.867 2.467-14.067 7.4-18.6 5.067-4.667 11.4-7 19-7s13.867 2.333 18.8 7c5.067 4.533 7.6 10.733 7.6 18.6 0 2.133-.2 4.267-.6 6.4-.267 2.133-.933 4.733-2 7.8-1.067 2.933-2.8 6.933-5.2 12L31 82.2H3zm58 0L77.8 26l6.6 25.2c-7.733 0-14.067-2.2-19-6.6-4.933-4.533-7.4-10.667-7.4-18.4 0-7.867 2.467-14.067 7.4-18.6 5.067-4.667 11.4-7 19-7s13.867 2.333 18.8 7c5.067 4.533 7.6 10.733 7.6 18.6 0 2.133-.2 4.267-.6 6.4-.267 2.133-.933 4.733-2 7.8-1.067 2.933-2.8 6.933-5.2 12L89 82.2H61z" fill="#009DE0"/></svg>